<svg width="24" height="24" viewBox="0 0 24 24" fill="none" xmlns="http://www.w3.org/2000/svg">
<path fill-rule="evenodd" clip-rule="evenodd" d="M19.5 7.5H4.5C3.672 7.5 3 6.8295 3 6C3 5.1705 3.672 4.5 4.5 4.5H19.5C20.3295 4.5 21 5.1705 21 6C21 6.8295 20.3295 7.5 19.5 7.5ZM19.5 13.5H4.5C3.672 13.5 3 12.8295 3 12C3 11.1705 3.672 10.5 4.5 10.5H19.5C20.3295 10.5 21 11.1705 21 12C21 12.8295 20.3295 13.5 19.5 13.5ZM4.5 19.5H19.5C20.3295 19.5 21 18.8295 21 18C21 17.1705 20.3295 16.5 19.5 16.5H4.5C3.672 16.5 3 17.1705 3 18C3 18.8295 3.672 19.5 4.5 19.5Z" fill="#343A40"/>
</svg>
